<svg xmlns="http://www.w3.org/2000/svg" version="1.1" xmlns:xlink="http://www.w3.org/1999/xlink" xmlns:svgjs="http://svgjs.dev/svgjs" width="1000" height="1000" viewBox="0 0 1000 1000"><rect width="1000" height="1000" fill="#ffffff"></rect><g transform="matrix(0.7,0,0,0.7,149.65000000000003,149.6500000000001)"><svg viewBox="0 0 280 280" data-background-color="#ffffff" preserveAspectRatio="xMidYMid meet" height="1000" width="1000" xmlns="http://www.w3.org/2000/svg" xmlns:xlink="http://www.w3.org/1999/xlink"><defs></defs><g id="tight-bounds" transform="matrix(1,0,0,1,0.13999999999998636,0.13999999999995794)"><svg viewBox="0 0 279.72 279.72" height="279.72" width="279.72"><g><svg viewBox="0 0 279.72 279.72" height="279.72" width="279.72"><g><svg viewBox="0 0 279.72 279.72" height="279.72" width="279.72"><g><svg viewBox="0 0 279.72 279.72" height="279.72" width="279.72"><g><svg viewBox="0 0 279.72 279.72" height="279.72" width="279.72"><g transform="matrix(1,0,0,1,57.57282199512515,57.446704652707865)"><svg viewBox="0 0 164.57435600974972 164.8265906945843" height="164.8265906945843" width="164.57435600974972"><g><circle r="82" cx="82.41329534729213" cy="82.41329534729213" fill="#000000" data-fill-palette-color="accent"></circle></g></svg></g><path d="M8.822 90.882l-1.532 4.507 19.976 6.79c0.275 0.093 0.468-0.023 0.578-0.349v0l1.034-3.04 0.632 0.215-3.37 9.916-0.633-0.215 1.034-3.04c0.111-0.326 0.029-0.536-0.247-0.629v0l-19.975-6.79-1.532 4.508c-0.204 0.601-0.059 1.014 0.434 1.238v0l3.91 1.907-0.274 0.805-1.64-0.557c-2.046-0.695-3.581-1.099-4.605-1.212v0c0.459-0.678 1-1.935 1.623-3.77v0l3.182-9.36c0.626-1.841 0.962-3.167 1.01-3.979v0c0.881 0.535 2.344 1.15 4.39 1.846v0l1.64 0.557-0.271 0.796-4.265-0.861c-0.527-0.129-0.893 0.11-1.099 0.717zM39.163 78.084l0.593 0.308-3.481 6.706-0.593-0.308 1.101-2.121-7.496-0.993-3.738 7.201 5.121 5.568 1.101-2.121 0.593 0.308-2.562 4.935-0.593-0.308 0.625-1.205c0.159-0.306 0.113-0.592-0.136-0.858v0l-15.833-17.36 0.579-1.115 23.308 2.959c0.362 0.051 0.622-0.077 0.781-0.382v0zM28.197 81.533l-10.615-1.402 7.237 7.91zM48.749 64.917v0c0.215-0.295 0.267-0.629 0.155-1.003-0.11-0.365-0.34-0.674-0.689-0.929-0.349-0.255-0.696-0.461-1.04-0.62v0l0.336-0.632c0.35 0.139 0.705 0.339 1.066 0.601v0c0.715 0.521 1.124 1.146 1.228 1.874 0.11 0.732-0.082 1.436-0.576 2.113v0c-1.234 1.691-2.873 1.79-4.919 0.298-2.046-1.492-3.738-2.334-5.078-2.526-1.338-0.182-2.586 0.52-3.744 2.108v0l-1.415 1.939 7.708 5.623c0.278 0.203 0.519 0.165 0.722-0.112v0l1.457-1.997 0.54 0.394-4.871 6.677-0.54-0.394 1.027-1.407c0.203-0.278 0.165-0.519-0.113-0.722v0l-16.922-12.345c-0.235-0.171-0.453-0.118-0.657 0.161v0l-1.026 1.407-0.54-0.394 5.414-7.421c1.218-1.669 2.713-2.756 4.484-3.261 1.763-0.503 3.41-0.195 4.944 0.923v0c1.227 0.895 1.985 2.033 2.274 3.414 0.288 1.381 0.135 2.811-0.46 4.291v0c1.501-1.061 3.006-1.33 4.513-0.807v0c1.234 0.44 2.546 1.168 3.937 2.182 1.391 1.015 2.319 1.203 2.785 0.565zM26.999 58.366v0l-2.197 3.011 8.404 6.131 2.197-3.012c0.868-1.189 1.127-2.421 0.777-3.695-0.349-1.274-1.088-2.323-2.217-3.147-1.135-0.828-2.362-1.213-3.683-1.157-1.32 0.057-2.414 0.68-3.281 1.869zM64.262 49.72l0.468 0.477-5.398 5.288-0.468-0.478 1.708-1.673-6.813-3.279-5.796 5.678 3.13 6.886 1.708-1.672 0.468 0.477-3.973 3.891-0.468-0.477 0.97-0.95c0.246-0.241 0.292-0.527 0.138-0.858v0l-9.634-21.429 0.897-0.879 21.226 10.075c0.328 0.161 0.615 0.121 0.86-0.12v0zM52.768 49.579l-9.65-4.64 4.411 9.772zM74.65 43.066l-10.254 7.478-0.609-0.835-1.801-24.886-7.807 5.693c-0.518 0.378-0.637 0.799-0.358 1.264v0l2.093 3.814-0.688 0.502-1.02-1.4c-1.273-1.746-2.293-2.962-3.061-3.647v0c0.76-0.287 1.926-1.003 3.497-2.149v0l9.624-7.018 0.609 0.834 1.776 24.905 8.463-6.171c0.513-0.374 0.632-0.795 0.357-1.263v0l-2.1-3.809 0.687-0.501 1.02 1.399c1.273 1.746 2.298 2.962 3.075 3.65v0c-0.77 0.285-1.937 0.999-3.503 2.14zM80.311 36.489c-2.709-1.037-4.906-3.237-6.59-6.599-1.684-3.363-2.13-6.44-1.339-9.231 0.789-2.782 2.588-4.876 5.395-6.282 2.801-1.403 5.552-1.588 8.253-0.554 2.709 1.037 4.906 3.237 6.591 6.6 1.684 3.363 2.13 6.44 1.338 9.23-0.786 2.788-2.58 4.883-5.381 6.287-2.807 1.406-5.563 1.589-8.267 0.549zM74.787 20.281c-0.37 2.413 0.21 5.147 1.741 8.202 1.53 3.055 3.372 5.157 5.526 6.306 2.16 1.146 4.185 1.246 6.075 0.3 1.89-0.947 3.025-2.629 3.407-5.049 0.382-2.419-0.192-5.156-1.723-8.211-1.53-3.055-3.378-5.154-5.544-6.297-2.166-1.143-4.194-1.241-6.083-0.295-1.89 0.947-3.022 2.628-3.399 5.044zM104.077 5.506l-1.704 0.364-0.14-0.654 9.163-1.957c3.057-0.653 5.763-0.175 8.116 1.436 2.353 1.61 3.907 4.182 4.661 7.714 0.755 3.533 0.387 6.515-1.103 8.946-1.49 2.431-3.764 3.973-6.821 4.627v0l-9.162 1.957-0.14-0.654 1.704-0.364c0.337-0.072 0.475-0.25 0.414-0.534v0l-4.392-20.563c-0.061-0.284-0.259-0.39-0.596-0.318zM111.611 4.269v0l-4.001 0.855 4.422 20.702 4.001-0.855c2.067-0.442 3.6-1.736 4.598-3.882 1.004-2.155 1.164-4.83 0.482-8.026-0.683-3.196-1.922-5.569-3.717-7.119-1.79-1.558-3.718-2.116-5.785-1.675zM130.281 22.409v0l-1.726-20.875c-0.024-0.289-0.207-0.42-0.55-0.391v0l-1.737 0.143-0.055-0.666 7.5-0.62 0.055 0.666-1.726 0.143c-0.343 0.028-0.503 0.187-0.479 0.477v0l1.726 20.874c0.028 0.343 0.214 0.501 0.557 0.473v0l1.727-0.143 0.055 0.666-7.5 0.62-0.056-0.666 1.737-0.144c0.343-0.028 0.501-0.214 0.472-0.557zM148.789 1.153v0c-2.233-0.106-4.077 0.79-5.532 2.687-1.456 1.905-2.265 4.563-2.428 7.977-0.162 3.413 0.398 6.12 1.682 8.121 1.284 2.008 2.961 3.061 5.031 3.16 2.077 0.099 3.553-0.365 4.427-1.392 0.874-1.033 1.36-2.578 1.457-4.636v0l0.071-1.477c0.014-0.297-0.151-0.453-0.495-0.469v0l-2.469-0.118 0.031-0.657 7.518 0.357-0.032 0.658-1.001-0.048c-0.344-0.016-0.523 0.124-0.537 0.421v0l-0.064 1.325c-0.104 2.185-0.975 3.945-2.613 5.281-1.639 1.342-3.686 1.954-6.142 1.837v0c-3.089-0.147-5.571-1.337-7.445-3.569-1.881-2.232-2.733-5.22-2.555-8.964 0.178-3.743 1.296-6.644 3.355-8.703 2.051-2.052 4.649-3.003 7.792-2.853v0c1.599 0.076 3.178 0.557 4.738 1.442v0c0.5 0.294 0.861 0.447 1.083 0.457v0c0.364 0.017 0.572-0.233 0.624-0.751v0l0.07-0.625 0.698 0.033-0.303 6.374-0.668-0.032c-0.126-1.899-0.765-3.325-1.915-4.279-1.151-0.954-2.61-1.473-4.378-1.557zM160.312 23.632v0l3.492-20.653c0.048-0.286-0.097-0.458-0.436-0.516v0l-1.718-0.29 0.111-0.659 7.421 1.254-0.112 0.659-1.708-0.288c-0.34-0.057-0.534 0.057-0.582 0.343v0l-3.492 20.653c-0.057 0.34 0.084 0.538 0.424 0.595v0l1.707 0.289-0.111 0.659-7.42-1.254 0.111-0.66 1.718 0.291c0.34 0.057 0.538-0.084 0.595-0.423zM186.758 8.886l-4.564-1.353-5.996 20.228c-0.083 0.278 0.041 0.467 0.371 0.564v0l3.078 0.913-0.19 0.641-10.041-2.977 0.19-0.641 3.079 0.913c0.33 0.098 0.537 0.008 0.619-0.271v0l5.996-20.228-4.564-1.353c-0.609-0.18-1.015-0.019-1.221 0.483v0l-1.75 3.982-0.816-0.242 0.492-1.661c0.614-2.072 0.957-3.621 1.03-4.649v0c0.696 0.432 1.973 0.923 3.831 1.474v0l9.478 2.81c1.865 0.553 3.203 0.837 4.015 0.852v0c-0.5 0.901-1.056 2.388-1.67 4.459v0l-0.493 1.661-0.806-0.239 0.693-4.295c0.108-0.531-0.145-0.888-0.761-1.071zM200.739 38.704l-0.285 0.604-6.837-3.216 0.284-0.604 2.163 1.017 0.698-7.529-7.341-3.453-5.364 5.335 2.163 1.017-0.284 0.605-5.032-2.367 0.285-0.605 1.228 0.578c0.312 0.147 0.596 0.09 0.852-0.17v0l16.726-16.5 1.137 0.534-2.043 23.407c-0.037 0.363 0.101 0.618 0.412 0.765v0zM196.863 27.881l0.985-10.662-7.621 7.541zM209.665 45.413l-9.455-6.177 0.366-0.559 1.458 0.953c0.288 0.188 0.527 0.138 0.715-0.15v0l11.455-17.537c0.159-0.243 0.094-0.459-0.194-0.647v0l-1.458-0.953 0.365-0.559 6.301 4.115-0.366 0.56-1.45-0.947c-0.288-0.188-0.512-0.161-0.671 0.082v0l-11.538 17.663 6.148 4.016c0.531 0.347 0.967 0.309 1.308-0.113v0l2.818-3.313 0.712 0.465-0.947 1.45c-1.182 1.809-1.956 3.198-2.324 4.168v0c-0.54-0.619-1.621-1.458-3.243-2.517zM222.459 54.229v0l14.294-15.311c0.198-0.212 0.171-0.436-0.081-0.671v0l-1.273-1.189 0.456-0.489 5.501 5.136-0.456 0.488-1.266-1.182c-0.252-0.235-0.477-0.246-0.675-0.034v0l-14.293 15.312c-0.235 0.252-0.227 0.495 0.025 0.73v0l1.266 1.182-0.456 0.488-5.501-5.135 0.456-0.489 1.273 1.189c0.252 0.235 0.495 0.227 0.73-0.025zM237.715 72.08v0c0.234 0.28 0.546 0.41 0.936 0.392 0.38-0.019 0.736-0.167 1.068-0.445 0.331-0.278 0.615-0.564 0.852-0.86v0l0.533 0.479c-0.219 0.307-0.499 0.603-0.84 0.889v0c-0.678 0.568-1.383 0.815-2.115 0.741-0.737-0.07-1.374-0.426-1.912-1.068v0c-1.344-1.605-1.046-3.22 0.896-4.846 1.941-1.626 3.166-3.066 3.674-4.32 0.499-1.255 0.118-2.636-1.144-4.142v0l-1.542-1.84-7.314 6.127c-0.264 0.221-0.285 0.464-0.064 0.728v0l1.587 1.894-0.512 0.429-5.308-6.335 0.513-0.43 1.118 1.336c0.221 0.264 0.464 0.285 0.728 0.064v0l16.057-13.451c0.223-0.186 0.223-0.412 0.002-0.675v0l-1.119-1.336 0.513-0.429 5.899 7.042c1.327 1.584 2.022 3.297 2.084 5.138 0.064 1.832-0.632 3.357-2.086 4.576v0c-1.165 0.976-2.452 1.437-3.861 1.384-1.409-0.053-2.761-0.546-4.054-1.479v0c0.668 1.713 0.567 3.238-0.303 4.574v0c-0.724 1.091-1.746 2.19-3.067 3.296-1.32 1.106-1.726 1.961-1.219 2.567zM249.312 52.548v0l-2.394-2.857-7.974 6.679 2.394 2.858c0.945 1.128 2.078 1.677 3.399 1.644 1.321-0.032 2.517-0.497 3.589-1.394 1.077-0.902 1.746-2 2.01-3.295 0.263-1.295-0.078-2.507-1.024-3.635zM248.733 90.796l-0.576 0.339-3.833-6.512 0.576-0.339 1.213 2.06 4.823-5.824-4.116-6.992-7.438 1.381 1.213 2.06-0.576 0.339-2.821-4.792 0.576-0.339 0.689 1.17c0.175 0.297 0.441 0.41 0.799 0.34v0l23.118-4.194 0.637 1.083-14.887 18.177c-0.235 0.279-0.265 0.568-0.09 0.864v0zM251.636 79.673l6.827-8.25-10.547 1.93zM254.642 108.075l-0.43-1.104 14.142-20.393-18.072 7.043c-0.321 0.125-0.419 0.348-0.294 0.669v0l0.629 1.613-0.623 0.243-2.089-5.36 0.623-0.243 0.632 1.623c0.125 0.321 0.348 0.419 0.669 0.294v0l19.517-7.605c0.271-0.105 0.343-0.319 0.218-0.64v0l-0.632-1.623 0.622-0.243 1.972 5.059-12.045 17.434 15.251-5.943c0.321-0.125 0.419-0.348 0.293-0.669v0l-0.629-1.614 0.623-0.243 2.089 5.361-0.623 0.242-0.628-1.613c-0.125-0.321-0.323-0.429-0.594-0.324v0zM35.401 186.155v0l-2.323 0.193-0.06-2.048c-0.112-1.434-0.325-2.632-0.638-3.594v0c-0.824-2.53-2.363-3.427-4.617-2.694v0c-0.982 0.32-1.666 0.969-2.05 1.947-0.378 0.975-0.577 2.077-0.596 3.304-0.013 1.226-0.06 2.463-0.144 3.712-0.077 1.247-0.446 2.404-1.106 3.471-0.661 1.067-1.688 1.828-3.081 2.282v0c-2.119 0.69-3.987 0.578-5.606-0.336-1.614-0.923-2.813-2.585-3.595-4.986v0c-0.391-1.201-0.608-2.465-0.65-3.794-0.04-1.322 0.052-2.446 0.276-3.371v0l2.09 0.204c-0.263 2.245-0.11 4.24 0.459 5.986 0.569 1.746 1.355 2.96 2.358 3.642 1.003 0.682 2.179 0.803 3.527 0.363v0c1.374-0.448 2.206-1.535 2.495-3.263v0c0.129-0.781 0.211-1.62 0.245-2.519 0.04-0.901 0.105-1.813 0.195-2.737 0.092-0.918 0.256-1.777 0.491-2.578 0.245-0.797 0.683-1.533 1.316-2.208 0.634-0.668 1.465-1.17 2.492-1.504v0c1.843-0.6 3.438-0.509 4.787 0.272 1.342 0.784 2.317 2.111 2.926 3.979 0.607 1.862 0.876 3.954 0.809 6.277zM63.466 256.065v0c-2.607-1.891-3.972-4.224-4.095-6.999-0.117-2.771 0.916-5.662 3.101-8.675 2.185-3.012 4.651-4.86 7.399-5.544 2.75-0.675 5.448-0.053 8.093 1.867v0c1.459 1.059 2.699 2.362 3.72 3.911v0l-1.723 1.341c-0.77-1.284-1.912-2.476-3.426-3.574v0c-1.913-1.388-3.933-1.789-6.059-1.204-2.13 0.591-4.077 2.102-5.842 4.534-1.768 2.438-2.675 4.792-2.719 7.062-0.041 2.264 0.879 4.078 2.759 5.442v0c1.241 0.9 3.059 1.677 5.455 2.33v0l-0.48 1.817c-2.259-0.187-4.32-0.956-6.183-2.308zM143.778 255.916l8.145 23.571-2.846 0.035-2.453-7.445-8.488 0.106-2.246 7.504-2.674 0.033 7.483-23.766zM138.747 269.977l7.272-0.09-3.758-11.38zM225.584 247.391l1.274 1.79-10.333 7.352-13.722-19.288 2.063-1.467 12.448 17.496zM269.169 180.988l2.064 0.755-4.376 11.967-22.231-8.13 4.376-11.967 2.064 0.755-3.506 9.589 7.049 2.578 3.217-8.8 2.131 0.78-3.218 8.799 8.923 3.263zM10.224 143.208c0-1.498 1.215-2.713 2.713-2.713 1.498 0 2.713 1.215 2.713 2.713 0 1.498-1.215 2.713-2.713 2.712-1.498 0-2.713-1.215-2.713-2.712zM265.217 143.208c0-1.498 1.215-2.713 2.713-2.713 1.498 0 2.713 1.215 2.713 2.713 0 1.498-1.215 2.713-2.713 2.712-1.498 0-2.713-1.215-2.713-2.712z" fill="#000000" data-fill-palette-color="primary"></path></svg></g></svg></g></svg></g></svg></g></svg><rect width="279.72" height="279.72" fill="none" stroke="none" visibility="hidden"></rect></g></svg></g></svg>